<svg height="512pt" viewBox="0 0 512 512" width="512pt" xmlns="http://www.w3.org/2000/svg" xmlns:xlink="http://www.w3.org/1999/xlink"><linearGradient id="a" gradientTransform="matrix(1 0 0 -1 0 -15158)" gradientUnits="userSpaceOnUse" x1="0" x2="512" y1="-15414" y2="-15414"><stop offset="0" stop-color="#00f38d"/><stop offset="1" stop-color="#009eff"/></linearGradient><path d="m512 256c0 141.386719-114.613281 256-256 256s-256-114.613281-256-256 114.613281-256 256-256 256 114.613281 256 256zm0 0" fill="url(#a)"/><path d="m256.003906 448.933594-7.496094-4.320313s-8.820312-5.085937-12.78125-7.390625c-9.5-5.523437-59.179687-35.21875-104.507812-77.53125-49.910156-46.585937-75.21875-90.359375-75.21875-130.105468 0-33.113282 10.863281-61.621094 31.421875-82.4375 19.589844-19.839844 46.605469-30.765626 76.078125-30.765626 41.269531 0 73.0625 19.890626 91.949219 57.523438.1875.367188.371093.738281.550781 1.105469.179688-.367188.363281-.738281.550781-1.105469 18.886719-37.632812 50.683594-57.523438 91.949219-57.523438 29.472656 0 56.488281 10.925782 76.078125 30.765626 20.558594 20.816406 31.421875 49.324218 31.421875 82.4375 0 39.746093-25.308594 83.519531-75.222656 130.109374-45.328125 42.308594-95.011719 72.003907-104.511719 77.527344-3.957031 2.300782-12.769531 7.386719-12.769531 7.386719zm-92.503906-302.546875c-45.632812 0-77.5 34.210937-77.5 83.199219 0 67.925781 107.804688 148.558593 164.808594 181.703124 1.34375.785157 3.257812 1.890626 5.1875 3.007813 1.933594-1.117187 3.84375-2.226563 5.191406-3.007813 57.003906-33.148437 164.8125-113.78125 164.8125-181.703124 0-48.988282-31.867188-83.199219-77.5-83.199219-29.574219 0-51.492188 13.785156-65.140625 40.976562-10.695313 21.308594-12.378906 43.277344-12.390625 43.492188h-29.386719l-.550781.039062c-.238281-3.453125-6.710938-84.507812-77.53125-84.507812zm0 0" fill="#fff"/></svg>